<?xml version="1.0" encoding="UTF-8"?>
<!DOCTYPE svg PUBLIC "-//W3C//DTD SVG 1.1//EN" "http://www.w3.org/Graphics/SVG/1.1/DTD/svg11.dtd">
<!-- Creator: CorelDRAW 2021 (64-Bit) -->
<svg xmlns="http://www.w3.org/2000/svg" xml:space="preserve" width="3.45596in" height="3.73106in" version="1.1" style="shape-rendering:geometricPrecision; text-rendering:geometricPrecision; image-rendering:optimizeQuality; fill-rule:evenodd; clip-rule:evenodd"
viewBox="0 0 425483.53 459351.49"
 xmlns:xlink="http://www.w3.org/1999/xlink"
 xmlns:xodm="http://www.corel.com/coreldraw/odm/2003">
 <defs>
  <style type="text/css">
   <![CDATA[
    .fil0 {fill:url(#id0)}
    .fil1 {fill:url(#id1)}
   ]]>
  </style>
  <radialGradient id="id0" gradientUnits="userSpaceOnUse" gradientTransform="matrix(-1.85244 1.82184 -1.57676 -1.60283 1.49824E+06 -288102)" cx="422835.08" cy="185273.15" r="22785.13" fx="422835.08" fy="185273.15">
   <stop offset="0" style="stop-opacity:1; stop-color:#FF8D01"/>
   <stop offset="1" style="stop-opacity:1; stop-color:#FC5400"/>
  </radialGradient>
  <radialGradient id="id1" gradientUnits="userSpaceOnUse" gradientTransform="matrix(-1.65466 1.35469 -1.17407 -1.4344 1.09094E+06 -276994)" cx="370170.64" cy="92209.3" r="40482.77" fx="370170.64" fy="92209.3">
   <stop offset="0" style="stop-opacity:1; stop-color:#00539F"/>
   <stop offset="0.388235" style="stop-opacity:1; stop-color:#003673"/>
   <stop offset="1" style="stop-opacity:1; stop-color:#001948"/>
  </radialGradient>
 </defs>
 <g id="Layer_x0020_1">
  <metadata id="CorelCorpID_0Corel-Layer"/>
  <path class="fil0" d="M106105.38 382629.56c0,3674.08 2303.81,4137.95 4505.36,6105.38 7467.4,6679.75 14468.52,14038.1 22445.35,19997.09 12260.68,9157.09 37481.46,28259.9 49065.49,34757.89l23840.34 12235.47c215.21,108.57 488.59,250.59 697.49,363.53 204.55,112.94 459.5,282.1 662.11,398.91l1271.87 850.18c6138.82,3490.38 10253.5,1971.79 15800.98,-983.96 1875.82,-998.01 1687.75,-737.24 3517.52,-1787.6l30121.18 -16565.36c4547.04,-2968.35 8529.88,-4929.48 13173.38,-8048.08l12519.51 -8701.47c13703.65,-9048.04 45420.49,-35914.89 53502.02,-46237.22l38584.17 -50544.33c906.4,-1639.77 816.73,-1944.65 1727.5,-3578.11 7331.2,-13162.72 13666.33,-23169.5 19451.8,-37844.99l13208.76 -38782.42c967.48,-3394.41 1612.62,-5714.7 2329.02,-8281.71 2312.05,-8265.23 5111.24,-16935.2 6330.76,-25500.95l2145.32 -8465.42c887.5,-3561.15 2738.11,-13733.22 1295.14,-16743.25 -4372.06,2928.6 -1978.09,2168.1 -4630.9,5980.32 -1781.78,2564.59 -3231.06,2487.52 -5739.91,4870.83l-16916.29 14914.93c-1428.43,1188.5 -1230.19,1236.49 -2851.05,2454.56l-8695.17 7220.69c-2343.56,1747.86 -2755.08,2687.7 -5092.34,4456.89 -2717.27,2057.58 -3402.16,2483.64 -6324.46,4286.27 -4457.37,2746.35 -1148.76,1965.49 -5522.27,5087.97l-24623.63 16757.31c-3183.07,1980.51 -3826.77,1374.63 -6922.11,3688.62 -2399.79,1792.45 -3093.4,2703.21 -6054.97,3494.74 0,13258.69 -5802.43,24523.29 -10186.61,35438.91 -1150.7,2867.53 -1221.95,3640.64 -2552.47,5935.73 -3797.2,6545.97 -9159.03,14996.85 -14566.43,20448.36 -4492.75,4528.62 -8212.88,9372.3 -13208.76,13317.82 -15379.28,12139.5 -29139.65,22958.66 -47994.28,30523.97 -12924.73,5188.31 -41594.21,14136.01 -55755.42,14274.15 -2262.13,22.78 -6278.42,-338.33 -8304.49,183.7 -4384.18,1127.91 352.87,1743.98 -6590.08,1898.6 188.07,-164.8 434.78,-413.46 549.66,-511.85l53056.57 -18033.54c8016.58,-3421.55 20176.92,-10552.08 26852.31,-15590.13l28849.31 -28447.97c1896.18,-3101.64 3912.07,-4877.13 5998.74,-8856.09 4565.94,-8703.41 12020.26,-19290.87 12020.26,-29893.37 -4849.98,-611.7 -8922.98,3342.06 -12939.27,5631.33 -4171.39,2377.01 -7957.93,3398.28 -12102.18,5935.73 -4488.39,2751.2 -7638.02,4235.86 -12452.62,6646.31l-57838.21 24924.63c-12540.35,5286.22 -24188.84,12696.91 -36027.82,19146.92 -2704.67,1474.48 -3580.05,1309.68 -6389.41,3160.29l-38592.41 26131.55c-2692.55,1760.94 -14648.35,9614.17 -14648.35,11878.24z"/>
  <path class="fil1" d="M89128.5 368835.76c8530.37,0 8697.59,-3327.03 14846.59,-8496.44 169.16,-140.08 398.91,-353.35 568.08,-492.95l4743.35 -3745.33c169.16,-139.6 395.04,-357.23 561.78,-499.25l46108.29 -32409.97c1572.39,-1033.88 1787.6,-1142.46 3366.78,-1938.35 2086.67,-1048.42 722.7,-164.8 2817.6,-1426.49l80644.67 -40316.03c2284.91,-1008.68 5691.44,-2007.17 7776.16,-2834.57 2792.4,-1109.01 3828.22,-1507.93 6833.89,-2715.33 5044.35,-2023.65 9457.61,-3809.32 14625.08,-5534.88l29318.99 -11000.92c-854.05,-10268.04 -6063.21,-17303.09 -11030.49,-23984.78 -10497.8,-14115.17 -29778.49,-13309.1 -44948.38,-10773.11 -9833.75,1643.64 -20202.12,5938.15 -25642.97,7249.77 -15034.17,3626.1 -5075.37,16500.41 -22004.27,23620.77 -9511.9,4002.23 -9583.15,3059.96 -18395.13,1765.3 -20.84,20.84 -1266.06,1288.35 -1560.27,1622.8 -833.21,948.09 -559.84,737.24 -1428.92,1754.64 -1186.08,1388.69 -1779.36,1933.98 -3109.88,3256.27l-87513.94 87559.99c-5792.25,5507.73 -9969.46,4039.55 -1349.43,12440.02 3281.47,3198.1 3749.21,3068.2 4772.43,6898.84zm-88067.48 -291790.05c0,6731.62 -1061.02,8858.03 -1061.02,15915.86l2044.98 54190.78c795.41,6797.05 185.64,12864.62 1407.59,19813.39l5046.29 37396.15c823.03,7103.39 8570.11,34768.55 10600.07,42452.62 845.81,3206.34 1555.91,4754.01 2510.78,8099.95 3486.02,12225.29 7149.44,6021.52 23810.77,-7243.47 3248.03,-2583.98 6949.25,-4110.8 10034.41,-6942.95 11815.72,-10844.36 25778.68,-19322.38 37115.99,-30791.53l11408.56 -10873.44c154.62,-154.62 378.07,-376.13 530.27,-530.75l54855.32 -58677.72c2941.21,-4505.36 5674.96,-5863.02 8281.71,-9756.19 -1011.1,-4336.19 -1700.35,-4591.15 -3022.15,-7588.1 -6681.69,-15132.57 7003.05,-30609.76 18938.01,-30609.76 5499.49,0 11308.23,-6.3 16108.28,2990.65 10111,6316.22 204.55,8450.88 26966.7,825.46 18708.74,-5332.75 37509.09,-10452.23 56033.64,-17179.49l16730.16 -6612.86c10779.9,-4964.86 23967.82,-8484.32 33983.33,-14825.75 4363.34,-2763.32 12855.9,-4451.07 15702.58,-8701.47 -2857.35,-3901.9 -10057.2,-4889.73 -14547.53,-6673.45l-49098.93 -17747.57c-1880.18,-720.76 -3469.54,-992.2 -5652.17,-1775.48l-60265.14 -21404.68c-6575.06,-2103.63 -11395.96,402.79 -17465.47,2433.23 -2314.48,775.05 -2677.52,1150.7 -5355.53,2072.12l-21778.88 7930.78c-3991.57,1221.95 -6873.64,2479.28 -10783.77,4070.57 -3799.14,1550.09 -6859.1,2638.26 -10713.01,4141.83 -7629.78,2980.95 -14712.81,4908.63 -21855.95,7853.72 -3977.03,1639.77 -6612.86,2120.11 -11222.43,3632.4 -9104.75,2988.71 -17710.24,7535.75 -26990.45,10146.87 -9841.5,2769.62 -17262.86,6719.02 -27369.98,9766.37l-58829.92 21810.38c-246.72,97.91 -545.3,171.1 -793.95,267.07 -246.23,98.4 -547.23,169.16 -793.47,267.56l-4509.72 1856.91zm290729.51 18037.91c3880.57,5796.13 2019.78,267.07 11483.69,6554.21 7692.31,5108.82 11784.21,8509.53 15585.77,16245.94 1319.86,2686.25 565.65,664.05 1351.36,2892.73 5271.68,14926.08 4856.28,29887.07 -2249.53,43981.88 -3024.57,6000.68 -2293.64,5378.31 -6587.66,10388.74l-20924.82 19395.57c-1890.36,1414.38 -2040.62,1345.55 -3930.98,2435.66 -5633.27,3248.03 -5539.24,3114.25 -6399.59,6332.7 5054.53,2424.99 17825.12,4900.39 26271.63,11926.71 5656.05,4705.54 9802.24,9238.04 13413.31,15234.84 1315.98,2187 2577.67,3876.69 3818.53,5731.18l2122.05 0c5666.72,0 30672.29,-20951.48 36963.31,-25638.6l13179.68 -11224.37c11512.77,-9712.57 20456.6,-18842.04 30240.42,-30240.42l10603.95 -13799.62c2239.35,-2554.89 8751.88,-12407.06 8751.88,-15652.66l0 -61541.37c-9353.4,-4948.38 -51135.67,-20055.74 -61541.37,-23343.51l-39697.55 23965.88c-6751.01,3899.47 -29638.89,12511.27 -32454.08,16354.52zm-79579.28 23343.03l-4945.96 10969.9c-2546.17,4039.55 -8933.64,8428.09 -16655.52,9871.07 -9587.03,1790.02 -8916.68,-2570.89 -14486.94,6734.04l-40044.6 45901.32c-8291.89,8252.15 -37370.95,38175.08 -43342.55,42602.88l-50099.37 42212.69c-11888.91,9415.44 -11598.57,3443.85 670.84,25467.02 450.78,808.49 1574.81,2368.77 2119.63,3185.5 1790.02,2692.07 2485.58,4754.01 4213.08,7458.68l8751.39 13530.61c8630.7,14808.78 8630.7,15842.67 19870.1,6142.7 1856.91,-1603.9 1975.67,-1418.25 3634.34,-2731.81l26528.53 -21219.04c11581.6,-9142.07 43311.04,-43068.69 52367.31,-53738.07 9422.23,-11101.26 7617.66,-6167.9 4096.26,-13728.86 -3588.29,-7709.27 -2546.17,8.24 -2546.17,-13369.69 0,-8580.29 6483.45,-16341.91 13242.21,-19650.53 18720.86,-9165.33 26219.28,5277.98 31322.28,7978.77l21724.11 -10107.12c2868.01,-1159.42 390.67,-398.91 2932.48,-1311.62 2753.14,-987.83 2702.73,-515.73 5433.09,-1994.57l22963.02 -13112.79c5313.36,-4102.56 7746.6,-3935.34 12991.62,-9290.87 3544.67,-3623.67 7581.79,-5829.58 12672.19,-11731.86l3393.92 -4033.25c904.46,-1180.26 1081.87,-1562.7 1721.2,-2523.39 9392.66,-14129.71 15638.12,-32431.29 2913.58,-47494.55 -4285.78,-5071.49 -17108.24,-9810.96 -19898.7,-9810.96 -7394.21,0 -10427.03,787.65 -16989.48,1048.91 -8298.68,330.09 -16183.41,3274.68 -23316.37,5332.27l-16607.05 5674.96c-221.51,104.7 -484.71,250.59 -712.04,348.99 -1679.51,730.94 -2126.41,530.27 -3916.44,1388.69z"/>
 </g>
</svg>
